<svg width="300" height="300" viewBox="0 0 300 300" fill="none" xmlns="http://www.w3.org/2000/svg">
<rect width="300" height="300" fill="white"/>
<path fill-rule="evenodd" clip-rule="evenodd" d="M131.442 51.5579C131.764 51.221 132.152 50.9529 132.58 50.7697C133.009 50.5865 133.471 50.4921 133.937 50.4921C134.403 50.4921 134.865 50.5865 135.293 50.7697C135.722 50.9529 136.109 51.221 136.432 51.5579L165.642 67.9474L194.874 85.0526C196.979 85.7684 197.716 87.9053 197.716 90.0421V134.947C197.663 135.839 197.385 136.703 196.906 137.457C196.427 138.212 195.765 138.832 194.98 139.26C194.196 139.687 193.315 139.908 192.422 139.901C191.529 139.894 190.652 139.66 189.874 139.221L182.758 135.653C180.653 134.232 179.189 134.232 177.053 135.653L152.105 149.916L127.895 164.158C127.033 164.487 126.296 165.077 125.785 165.845C125.274 166.612 125.014 167.52 125.042 168.442V182.695C125.042 186.968 120.053 189.105 116.495 186.968L102.221 178.421L73 162.032C72.1013 161.552 71.3566 160.828 70.8519 159.943C70.3471 159.059 70.1029 158.049 70.1474 157.032V90C70.1474 87.8947 70.8632 85.7263 73 85.0105L102.221 67.9474L131.432 51.5579H131.442Z" fill="#2380FF"/>
<path fill-rule="evenodd" clip-rule="evenodd" d="M194.874 51.5579C196.979 50.1369 199.147 50.1369 200.568 51.5579L214.116 58.6842L226.937 66.5263C229.042 67.2316 229.789 69.379 229.789 71.5158V101.442C229.789 103.547 229.074 105.726 226.937 106.432L214.116 114.274C209.832 116.379 205.558 113.558 205.558 109.284V85.7895C205.558 83.6842 204.853 81.5158 202.705 80.8L181.326 68.6632C180.506 68.115 179.833 67.3729 179.367 66.5026C178.902 65.6323 178.659 64.6606 178.659 63.6737C178.659 62.6868 178.902 61.7151 179.367 60.8448C179.833 59.9745 180.506 59.2324 181.326 58.6842H182.042L194.874 51.5579Z" fill="#00D25E"/>
<path fill-rule="evenodd" clip-rule="evenodd" d="M177.053 145.632C178.887 144.916 180.923 144.916 182.758 145.632L202.705 157.747L223.379 169.158C224.235 169.684 224.944 170.416 225.443 171.288C225.941 172.16 226.213 173.143 226.232 174.147V220.463C226.232 222.568 224.8 224.032 223.379 225.453L202.705 236.863L182.758 248.947C180.923 249.663 178.887 249.663 177.053 248.947L157.053 236.832L136.389 225.421C135.697 224.792 135.151 224.02 134.787 223.158C134.424 222.297 134.252 221.366 134.284 220.432V174.116C134.284 172.011 134.989 169.832 136.389 169.126L157.053 157.716L177.053 145.632Z" fill="#FF4F67"/>
</svg>
