<svg width="152" height="190" viewBox="0 0 152 190" fill="none" xmlns="http://www.w3.org/2000/svg">
<path fill-rule="evenodd" clip-rule="evenodd" d="M58.37 1.48C58.6762 1.15995 59.0441 0.905226 59.4514 0.731209C59.8587 0.557192 60.2971 0.467484 60.74 0.467484C61.1829 0.467484 61.6213 0.557192 62.0286 0.731209C62.4359 0.905226 62.8038 1.15995 63.11 1.48L90.86 17.05L118.63 33.3C120.63 33.98 121.33 36.01 121.33 38.04V80.7C121.28 81.5473 121.015 82.3679 120.561 83.0846C120.106 83.8013 119.477 84.3905 118.731 84.7966C117.986 85.2028 117.15 85.4125 116.301 85.4061C115.452 85.3997 114.619 85.1773 113.88 84.76L107.12 81.37C105.12 80.02 103.73 80.02 101.7 81.37L78 94.92L55 108.45C54.1817 108.763 53.4811 109.323 52.9955 110.052C52.5098 110.782 52.2633 111.644 52.29 112.52V126.06C52.29 130.12 47.55 132.15 44.17 130.12L30.61 122L2.85 106.43C1.99627 105.974 1.28881 105.287 0.809286 104.446C0.329762 103.606 0.0977343 102.647 0.139998 101.68V38C0.139998 36 0.819997 33.94 2.85 33.26L30.61 17.05L58.36 1.48H58.37Z" fill="#2380FF"/>
<path fill-rule="evenodd" clip-rule="evenodd" d="M118.63 1.48001C120.63 0.130014 122.69 0.130014 124.04 1.48001L136.91 8.25001L149.09 15.7C151.09 16.37 151.8 18.41 151.8 20.44V48.87C151.8 50.87 151.12 52.94 149.09 53.61L136.91 61.06C132.84 63.06 128.78 60.38 128.78 56.32V34C128.78 32 128.11 29.94 126.07 29.26L105.76 17.73C104.98 17.2093 104.341 16.5043 103.899 15.6775C103.457 14.8507 103.226 13.9276 103.226 12.99C103.226 12.0524 103.457 11.1294 103.899 10.3026C104.341 9.47574 104.98 8.77074 105.76 8.25001H106.44L118.63 1.48001Z" fill="#00D25E"/>
<path fill-rule="evenodd" clip-rule="evenodd" d="M101.7 90.85C103.443 90.1705 105.377 90.1705 107.12 90.85L126.07 102.36L145.71 113.2C146.523 113.7 147.197 114.395 147.671 115.224C148.144 116.052 148.402 116.986 148.42 117.94V161.94C148.42 163.94 147.06 165.33 145.71 166.68L126.07 177.52L107.12 189C105.377 189.68 103.443 189.68 101.7 189L82.7 177.49L63.07 166.65C62.4126 166.052 61.8931 165.319 61.5477 164.5C61.2024 163.682 61.0393 162.798 61.07 161.91V117.91C61.07 115.91 61.74 113.84 63.07 113.17L82.7 102.33L101.7 90.85Z" fill="#FF4F67"/>
</svg>
