<svg width="165" height="71" viewBox="0 0 165 71" fill="none" xmlns="http://www.w3.org/2000/svg">
<path d="M8.192 56C6.57067 56 5.76 55.1893 5.76 53.568V23.424C5.76 21.8027 6.57067 20.992 8.192 20.992C9.81333 20.992 10.624 21.8027 10.624 23.424V26.176C11.904 24.4693 13.4827 23.1253 15.36 22.144C17.2373 21.12 19.3067 20.608 21.568 20.608C23.5307 20.608 25.0453 20.8853 26.112 21.44C27.1787 21.9947 27.584 22.8053 27.328 23.872C27.1147 24.8533 26.6027 25.3653 25.792 25.408C25.024 25.408 24.1067 25.3653 23.04 25.28C20.6507 25.0667 18.5173 25.3227 16.64 26.048C14.8053 26.7307 13.3333 27.7973 12.224 29.248C11.1573 30.6987 10.624 32.4267 10.624 34.432V53.568C10.624 55.1893 9.81333 56 8.192 56Z" fill="black"/>
<path d="M71.48 70.976C70.7547 70.976 70.1573 70.7413 69.688 70.272C69.2187 69.8453 68.984 69.248 68.984 68.48C68.984 67.7547 69.2187 67.1573 69.688 66.688C70.1573 66.2187 70.7547 65.984 71.48 65.984C74.424 65.984 76.8347 65.0453 78.712 63.168C80.5893 61.2907 81.528 58.9013 81.528 56V23.488C81.528 22.72 81.7413 22.1227 82.168 21.696C82.6373 21.2267 83.2347 20.992 83.96 20.992C84.6853 20.992 85.2827 21.2267 85.752 21.696C86.2213 22.1227 86.456 22.72 86.456 23.488V56C86.456 58.9013 85.816 61.4827 84.536 63.744C83.256 66.0053 81.4853 67.776 79.224 69.056C76.9627 70.336 74.3813 70.976 71.48 70.976Z" fill="black"/>
<path d="M158.456 56C156.195 56 154.168 55.4667 152.376 54.4C150.627 53.3333 149.24 51.8827 148.216 50.048C147.192 48.1707 146.68 46.0373 146.68 43.648V26.56H142.52C141.88 26.56 141.347 26.368 140.92 25.984C140.493 25.5573 140.28 25.0453 140.28 24.448C140.28 23.808 140.493 23.296 140.92 22.912C141.347 22.4853 141.88 22.272 142.52 22.272H146.68V12.352C146.68 11.6267 146.893 11.0293 147.32 10.56C147.789 10.0907 148.387 9.856 149.112 9.856C149.837 9.856 150.435 10.0907 150.904 10.56C151.373 11.0293 151.608 11.6267 151.608 12.352V22.272H158.84C159.48 22.272 160.013 22.4853 160.44 22.912C160.867 23.296 161.08 23.808 161.08 24.448C161.08 25.0453 160.867 25.5573 160.44 25.984C160.013 26.368 159.48 26.56 158.84 26.56H151.608V43.648C151.608 45.824 152.248 47.616 153.528 49.024C154.808 50.3893 156.451 51.072 158.456 51.072H160.184C160.867 51.072 161.421 51.3067 161.848 51.776C162.275 52.2453 162.488 52.8427 162.488 53.568C162.488 54.2933 162.232 54.8907 161.72 55.36C161.208 55.7867 160.568 56 159.8 56H158.456Z" fill="black"/>
<path d="M111.57 47.3033L108.352 46.44L109.663 41.5417C107.7 40.8175 105.875 39.7623 104.268 38.4217L100.68 42.0117L98.3217 39.6533L101.912 36.065C99.8851 33.6379 98.5235 30.7263 97.96 27.615L101.24 27.0167C102.505 34.02 108.632 39.3333 116 39.3333C123.367 39.3333 129.495 34.02 130.76 27.0167L134.04 27.6133C133.477 30.725 132.116 33.6373 130.09 36.065L133.678 39.6533L131.32 42.0117L127.732 38.4217C126.125 39.7623 124.3 40.8175 122.337 41.5417L123.648 46.4417L120.43 47.3033L119.117 42.4033C117.054 42.7568 114.946 42.7568 112.883 42.4033L111.57 47.3033Z" fill="black"/>
<path d="M48.57 47.3033L45.3517 46.44L46.6633 41.5417C44.6999 40.8175 42.8752 39.7623 41.2683 38.4217L37.68 42.0117L35.3217 39.6533L38.9117 36.065C36.8851 33.6379 35.5235 30.7263 34.96 27.615L38.24 27.0167C39.505 34.02 45.6317 39.3333 53 39.3333C60.3667 39.3333 66.495 34.02 67.76 27.0167L71.04 27.6133C70.4773 30.725 69.1162 33.6373 67.09 36.065L70.6783 39.6533L68.32 42.0117L64.7317 38.4217C63.1248 39.7623 61.3 40.8175 59.3367 41.5417L60.6483 46.4417L57.43 47.3033L56.1167 42.4033C54.0539 42.7568 51.9461 42.7568 49.8833 42.4033L48.57 47.3033Z" fill="black"/>
</svg>
