<svg width="165" height="71" viewBox="0 0 165 71" fill="none" xmlns="http://www.w3.org/2000/svg">
<path d="M8.192 56C6.57067 56 5.76 55.1893 5.76 53.568V23.424C5.76 21.8027 6.57067 20.992 8.192 20.992C9.81333 20.992 10.624 21.8027 10.624 23.424V26.176C11.904 24.4693 13.4827 23.1253 15.36 22.144C17.2373 21.12 19.3067 20.608 21.568 20.608C23.5307 20.608 25.0453 20.8853 26.112 21.44C27.1787 21.9947 27.584 22.8053 27.328 23.872C27.1147 24.8533 26.6027 25.3653 25.792 25.408C25.024 25.408 24.1067 25.3653 23.04 25.28C20.6507 25.0667 18.5173 25.3227 16.64 26.048C14.8053 26.7307 13.3333 27.7973 12.224 29.248C11.1573 30.6987 10.624 32.4267 10.624 34.432V53.568C10.624 55.1893 9.81333 56 8.192 56Z" fill="black"/>
<path d="M52.184 56.32C48.8987 56.32 45.9547 55.552 43.352 54.016C40.7493 52.4373 38.68 50.304 37.144 47.616C35.6507 44.928 34.904 41.8987 34.904 38.528C34.904 35.1147 35.672 32.064 37.208 29.376C38.7867 26.688 40.92 24.576 43.608 23.04C46.296 21.4613 49.3253 20.672 52.696 20.672C56.0667 20.672 59.0747 21.4613 61.72 23.04C64.408 24.576 66.52 26.688 68.056 29.376C69.6347 32.064 70.4453 35.1147 70.488 38.528V53.568C70.488 54.2933 70.2533 54.8907 69.784 55.36C69.3147 55.7867 68.7173 56 67.992 56C67.2667 56 66.6693 55.7867 66.2 55.36C65.7307 54.8907 65.496 54.2933 65.496 53.568V49.664C64.0453 51.712 62.168 53.3333 59.864 54.528C57.56 55.7227 55 56.32 52.184 56.32ZM52.696 51.84C55.1707 51.84 57.368 51.264 59.288 50.112C61.2507 48.96 62.7867 47.3813 63.896 45.376C65.048 43.328 65.624 41.0453 65.624 38.528C65.624 35.968 65.048 33.6853 63.896 31.68C62.7867 29.6747 61.2507 28.096 59.288 26.944C57.368 25.7493 55.1707 25.152 52.696 25.152C50.264 25.152 48.0667 25.7493 46.104 26.944C44.1413 28.096 42.584 29.6747 41.432 31.68C40.28 33.6853 39.704 35.968 39.704 38.528C39.704 41.0453 40.28 43.328 41.432 45.376C42.584 47.3813 44.1413 48.96 46.104 50.112C48.0667 51.264 50.264 51.84 52.696 51.84Z" fill="black"/>
<path d="M71.48 70.976C70.7547 70.976 70.1573 70.7413 69.688 70.272C69.2187 69.8453 68.984 69.248 68.984 68.48C68.984 67.7547 69.2187 67.1573 69.688 66.688C70.1573 66.2187 70.7547 65.984 71.48 65.984C74.424 65.984 76.8347 65.0453 78.712 63.168C80.5893 61.2907 81.528 58.9013 81.528 56V23.488C81.528 22.72 81.7413 22.1227 82.168 21.696C82.6373 21.2267 83.2347 20.992 83.96 20.992C84.6853 20.992 85.2827 21.2267 85.752 21.696C86.2213 22.1227 86.456 22.72 86.456 23.488V56C86.456 58.9013 85.816 61.4827 84.536 63.744C83.256 66.0053 81.4853 67.776 79.224 69.056C76.9627 70.336 74.3813 70.976 71.48 70.976Z" fill="black"/>
<path d="M116.184 56.32C112.899 56.32 109.955 55.552 107.352 54.016C104.749 52.4373 102.68 50.304 101.144 47.616C99.6507 44.928 98.904 41.8987 98.904 38.528C98.904 35.1147 99.672 32.064 101.208 29.376C102.787 26.688 104.92 24.576 107.608 23.04C110.296 21.4613 113.325 20.672 116.696 20.672C120.067 20.672 123.075 21.4613 125.72 23.04C128.408 24.576 130.52 26.688 132.056 29.376C133.635 32.064 134.445 35.1147 134.488 38.528V53.568C134.488 54.2933 134.253 54.8907 133.784 55.36C133.315 55.7867 132.717 56 131.992 56C131.267 56 130.669 55.7867 130.2 55.36C129.731 54.8907 129.496 54.2933 129.496 53.568V49.664C128.045 51.712 126.168 53.3333 123.864 54.528C121.56 55.7227 119 56.32 116.184 56.32ZM116.696 51.84C119.171 51.84 121.368 51.264 123.288 50.112C125.251 48.96 126.787 47.3813 127.896 45.376C129.048 43.328 129.624 41.0453 129.624 38.528C129.624 35.968 129.048 33.6853 127.896 31.68C126.787 29.6747 125.251 28.096 123.288 26.944C121.368 25.7493 119.171 25.152 116.696 25.152C114.264 25.152 112.067 25.7493 110.104 26.944C108.141 28.096 106.584 29.6747 105.432 31.68C104.28 33.6853 103.704 35.968 103.704 38.528C103.704 41.0453 104.28 43.328 105.432 45.376C106.584 47.3813 108.141 48.96 110.104 50.112C112.067 51.264 114.264 51.84 116.696 51.84Z" fill="black"/>
<path d="M158.456 56C156.195 56 154.168 55.4667 152.376 54.4C150.627 53.3333 149.24 51.8827 148.216 50.048C147.192 48.1707 146.68 46.0373 146.68 43.648V26.56H142.52C141.88 26.56 141.347 26.368 140.92 25.984C140.493 25.5573 140.28 25.0453 140.28 24.448C140.28 23.808 140.493 23.296 140.92 22.912C141.347 22.4853 141.88 22.272 142.52 22.272H146.68V12.352C146.68 11.6267 146.893 11.0293 147.32 10.56C147.789 10.0907 148.387 9.856 149.112 9.856C149.837 9.856 150.435 10.0907 150.904 10.56C151.373 11.0293 151.608 11.6267 151.608 12.352V22.272H158.84C159.48 22.272 160.013 22.4853 160.44 22.912C160.867 23.296 161.08 23.808 161.08 24.448C161.08 25.0453 160.867 25.5573 160.44 25.984C160.013 26.368 159.48 26.56 158.84 26.56H151.608V43.648C151.608 45.824 152.248 47.616 153.528 49.024C154.808 50.3893 156.451 51.072 158.456 51.072H160.184C160.867 51.072 161.421 51.3067 161.848 51.776C162.275 52.2453 162.488 52.8427 162.488 53.568C162.488 54.2933 162.232 54.8907 161.72 55.36C161.208 55.7867 160.568 56 159.8 56H158.456Z" fill="black"/>
</svg>
