<svg width="300" height="300" viewBox="0 0 300 300" fill="none" xmlns="http://www.w3.org/2000/svg">
<g clip-path="url(#clip0)">
<rect width="300" height="300" fill="white"/>
<path d="M150 338C253.83 338 338 253.83 338 150C338 46.1704 253.83 -38 150 -38C46.1704 -38 -38 46.1704 -38 150C-38 253.83 46.1704 338 150 338Z" fill="white"/>
<path d="M71.6505 194.509L92.4245 227.033C93.2277 228.315 94.3435 229.372 95.6675 230.104C96.991 230.837 98.479 231.221 99.9915 231.221C101.504 231.221 102.992 230.837 104.316 230.104C105.639 229.372 106.755 228.315 107.558 227.033L153.947 151.504L119.449 95.198L71.3685 175.709C69.6577 178.557 68.7774 181.827 68.8272 185.149C68.877 188.471 69.8551 191.713 71.6505 194.509Z" fill="#00A99D"/>
<path d="M236.573 175.709L188.492 95.198L153.947 151.598L200.383 227.127C201.187 228.409 202.303 229.466 203.626 230.198C204.95 230.931 206.438 231.315 207.95 231.315C209.463 231.315 210.951 230.931 212.275 230.198C213.598 229.466 214.714 228.409 215.517 227.127L236.291 194.603C238.09 191.791 239.069 188.533 239.119 185.196C239.169 181.858 238.287 178.573 236.573 175.709Z" fill="#EF445A"/>
<path d="M175.286 73.061L161.562 51.3C160.761 50.008 159.643 48.9415 158.315 48.2017C156.987 47.4624 155.492 47.0742 153.972 47.0742C152.451 47.0742 150.956 47.4624 149.628 48.2017C148.3 48.9415 147.182 50.008 146.381 51.3L132.657 73.108L119.45 95.198L153.948 151.598L188.493 95.433L175.286 73.061Z" fill="#01445A"/>
</g>
<defs>
<clipPath id="clip0">
<rect width="300" height="300" fill="white"/>
</clipPath>
</defs>
</svg>
