<svg width="80" height="80" viewBox="0 0 80 80" fill="none" xmlns="http://www.w3.org/2000/svg">
<path d="M40 80C62.0914 80 80 62.0914 80 40C80 17.9086 62.0914 0 40 0C17.9086 0 0 17.9086 0 40C0 62.0914 17.9086 80 40 80Z" fill="white"/>
<path d="M23.3299 49.47L27.7499 56.39C27.9208 56.6627 28.1582 56.8876 28.4399 57.0435C28.7215 57.1993 29.0381 57.2811 29.3599 57.2811C29.6818 57.2811 29.9984 57.1993 30.28 57.0435C30.5616 56.8876 30.799 56.6627 30.9699 56.39L40.8399 40.32L33.4999 28.34L23.2699 45.47C22.9059 46.076 22.7186 46.7717 22.7292 47.4786C22.7398 48.1854 22.9479 48.8752 23.3299 49.47Z" fill="#00A99D"/>
<path d="M58.4198 45.47L48.1898 28.34L40.8398 40.34L50.7198 56.41C50.8908 56.6827 51.1282 56.9076 51.4098 57.0635C51.6914 57.2193 52.008 57.3011 52.3298 57.3011C52.6517 57.3011 52.9683 57.2193 53.2499 57.0635C53.5315 56.9076 53.7689 56.6827 53.9398 56.41L58.3598 49.49C58.7425 48.8917 58.9509 48.1986 58.9615 47.4885C58.9721 46.7784 58.7845 46.0794 58.4198 45.47Z" fill="#EF445A"/>
<path d="M45.38 23.63L42.46 19C42.2896 18.7251 42.0518 18.4982 41.7692 18.3408C41.4866 18.1835 41.1685 18.1009 40.845 18.1009C40.5215 18.1009 40.2034 18.1835 39.9208 18.3408C39.6382 18.4982 39.4004 18.7251 39.23 19L36.31 23.64L33.5 28.34L40.84 40.34L48.19 28.39L45.38 23.63Z" fill="#01445A"/>
</svg>
