<svg width="120" height="50" viewBox="0 0 120 50" fill="none" xmlns="http://www.w3.org/2000/svg">
<path d="M1.98814 37.7223C0.662713 37.7223 0 37.0596 0 35.7342V11.0917C0 9.7663 0.662713 9.10358 1.98814 9.10358C3.31357 9.10358 3.97628 9.7663 3.97628 11.0917V13.3415C5.02267 11.9463 6.31321 10.8476 7.84792 10.0453C9.38262 9.20822 11.0743 8.78967 12.9229 8.78967C14.5274 8.78967 15.7656 9.01639 16.6376 9.46982C17.5096 9.92326 17.8409 10.586 17.6317 11.458C17.4573 12.2602 17.0387 12.6787 16.376 12.7136C15.7482 12.7136 14.9982 12.6787 14.1263 12.609C12.173 12.4346 10.429 12.6439 8.89431 13.2368C7.39448 13.7949 6.19114 14.6669 5.28427 15.8528C4.41227 17.0387 3.97628 18.4513 3.97628 20.0907V35.7342C3.97628 37.0596 3.31357 37.7223 1.98814 37.7223Z" fill="black"/>
<path d="M34.4769 37.9839C31.7912 37.9839 29.3845 37.3561 27.2568 36.1004C25.1291 34.8099 23.4375 33.0659 22.1818 30.8685C20.961 28.6711 20.3506 26.1946 20.3506 23.4391C20.3506 20.6487 20.9785 18.1549 22.2341 15.9574C23.5247 13.76 25.2687 12.0335 27.4661 10.7778C29.6635 9.48726 32.14 8.84199 34.8954 8.84199C37.6509 8.84199 40.1099 9.48726 42.2725 10.7778C44.4699 12.0335 46.1965 13.76 47.4521 15.9574C48.7427 18.1549 49.4054 20.6487 49.4403 23.4391V35.7342C49.4403 36.3271 49.2484 36.8155 48.8647 37.1991C48.4811 37.5479 47.9928 37.7223 47.3998 37.7223C46.8068 37.7223 46.3185 37.5479 45.9349 37.1991C45.5512 36.8155 45.3593 36.3271 45.3593 35.7342V32.5427C44.1734 34.2169 42.6387 35.5424 40.7552 36.519C38.8717 37.4956 36.7789 37.9839 34.4769 37.9839ZM34.8954 34.3216C36.9185 34.3216 38.7148 33.8507 40.2843 32.9089C41.8888 31.9672 43.1445 30.6766 44.0513 29.0373C44.9931 27.3631 45.464 25.497 45.464 23.4391C45.464 21.3463 44.9931 19.4803 44.0513 17.8409C43.1445 16.2016 41.8888 14.911 40.2843 13.9693C38.7148 12.9927 36.9185 12.5043 34.8954 12.5043C32.9073 12.5043 31.111 12.9927 29.5065 13.9693C27.9021 14.911 26.629 16.2016 25.6872 17.8409C24.7455 19.4803 24.2746 21.3463 24.2746 23.4391C24.2746 25.497 24.7455 27.3631 25.6872 29.0373C26.629 30.6766 27.9021 31.9672 29.5065 32.9089C31.111 33.8507 32.9073 34.3216 34.8954 34.3216Z" fill="black"/>
<path d="M49.6892 49.9651C49.0962 49.9651 48.6079 49.7732 48.2242 49.3896C47.8406 49.0408 47.6487 48.5525 47.6487 47.9246C47.6487 47.3317 47.8406 46.8434 48.2242 46.4597C48.6079 46.076 49.0962 45.8842 49.6892 45.8842C52.0959 45.8842 54.0666 45.1168 55.6013 43.5821C57.136 42.0474 57.9033 40.0941 57.9033 37.7223V11.144C57.9033 10.5162 58.0777 10.0279 58.4265 9.6791C58.8102 9.29542 59.2985 9.10358 59.8915 9.10358C60.4844 9.10358 60.9727 9.29542 61.3564 9.6791C61.7401 10.0279 61.9319 10.5162 61.9319 11.144V37.7223C61.9319 40.0941 61.4087 42.2044 60.3624 44.053C59.316 45.9016 57.8685 47.3491 56.0198 48.3955C54.1712 49.4419 52.061 49.9651 49.6892 49.9651Z" fill="black"/>
<path d="M82.7089 37.9839C80.0232 37.9839 77.6165 37.3561 75.4888 36.1004C73.3611 34.8099 71.6695 33.0659 70.4138 30.8685C69.193 28.6711 68.5826 26.1946 68.5826 23.4391C68.5826 20.6487 69.2105 18.1549 70.4661 15.9574C71.7567 13.76 73.5007 12.0335 75.6981 10.7778C77.8955 9.48726 80.372 8.84199 83.1274 8.84199C85.8829 8.84199 88.3419 9.48726 90.5045 10.7778C92.7019 12.0335 94.4284 13.76 95.6841 15.9574C96.9747 18.1549 97.6374 20.6487 97.6723 23.4391V35.7342C97.6723 36.3271 97.4804 36.8155 97.0967 37.1991C96.7131 37.5479 96.2248 37.7223 95.6318 37.7223C95.0388 37.7223 94.5505 37.5479 94.1668 37.1991C93.7832 36.8155 93.5913 36.3271 93.5913 35.7342V32.5427C92.4054 34.2169 90.8707 35.5424 88.9872 36.519C87.1037 37.4956 85.0109 37.9839 82.7089 37.9839ZM83.1274 34.3216C85.1505 34.3216 86.9468 33.8507 88.5163 32.9089C90.1208 31.9672 91.3765 30.6766 92.2833 29.0373C93.2251 27.3631 93.696 25.497 93.696 23.4391C93.696 21.3463 93.2251 19.4803 92.2833 17.8409C91.3765 16.2016 90.1208 14.911 88.5163 13.9693C86.9468 12.9927 85.1505 12.5043 83.1274 12.5043C81.1393 12.5043 79.343 12.9927 77.7385 13.9693C76.1341 14.911 74.861 16.2016 73.9192 17.8409C72.9775 19.4803 72.5066 21.3463 72.5066 23.4391C72.5066 25.497 72.9775 27.3631 73.9192 29.0373C74.861 30.6766 76.1341 31.9672 77.7385 32.9089C79.343 33.8507 81.1393 34.3216 83.1274 34.3216Z" fill="black"/>
<path d="M116.704 37.7223C114.855 37.7223 113.198 37.2863 111.734 36.4143C110.303 35.5424 109.17 34.3564 108.333 32.8566C107.496 31.3219 107.077 29.5779 107.077 27.6247V13.6554H103.676C103.153 13.6554 102.717 13.4984 102.368 13.1845C102.02 12.8357 101.845 12.4172 101.845 11.9288C101.845 11.4056 102.02 10.9871 102.368 10.6732C102.717 10.3244 103.153 10.15 103.676 10.15H107.077V2.04046C107.077 1.4475 107.251 0.959188 107.6 0.575513C107.984 0.191838 108.472 0 109.065 0C109.658 0 110.147 0.191838 110.53 0.575513C110.914 0.959188 111.106 1.4475 111.106 2.04046V10.15H117.018C117.541 10.15 117.977 10.3244 118.326 10.6732C118.675 10.9871 118.849 11.4056 118.849 11.9288C118.849 12.4172 118.675 12.8357 118.326 13.1845C117.977 13.4984 117.541 13.6554 117.018 13.6554H111.106V27.6247C111.106 29.4035 111.629 30.8685 112.675 32.0195C113.722 33.1357 115.065 33.6937 116.704 33.6937H118.117C118.675 33.6937 119.128 33.8856 119.477 34.2692C119.826 34.6529 120 35.1412 120 35.7342C120 36.3271 119.791 36.8155 119.372 37.1991C118.954 37.5479 118.43 37.7223 117.803 37.7223H116.704Z" fill="black"/>
<circle cx="34.5" cy="23.5" r="3.5" fill="black"/>
<circle cx="82.5" cy="23.5" r="3.5" fill="black"/>
</svg>
