<svg width="300" height="300" viewBox="0 0 300 300" fill="none" xmlns="http://www.w3.org/2000/svg">
<g clip-path="url(#clip0)">
<rect width="300" height="300" fill="white"/>
<path d="M91.3099 162.598C90.7903 164.086 90.5418 165.746 90.5418 167.541C90.5418 173.589 95.0828 178.824 102.648 178.824C109.588 178.824 113.559 175.918 115.365 173.987H115.607L115.254 177.674H132.672L136.964 157.637C137.139 156.77 137.279 155.942 137.369 155.151L91.3099 162.598V162.598ZM112.695 150.907C113.195 148.517 115.018 146.624 117.328 146.624C119.683 146.624 120.646 148.625 120.228 150.655L119.928 152.118L137.311 150.298C135.995 141.42 127.697 137.564 118.058 137.564C103.699 137.564 96.8385 144.702 95.4843 151.018L95.2962 151.91H112.494L112.695 150.907ZM117.392 164.106C116.841 167.024 114.859 169.325 112.07 169.325C109.445 169.325 108.253 167.171 108.753 164.822C109.177 162.847 111.235 160.871 115.056 160.871H118.08L117.392 164.106ZM163.85 150.85C162.643 152.469 161.668 154.805 160.896 158.329C159.246 165.945 161.043 167.937 163.293 167.937C166.298 167.937 168.841 165.082 170.09 158.441C170.89 154.209 170.768 151.166 169.621 149.917L188.218 146.905C189.13 149.856 189.279 153.645 188.406 157.969C185.682 171.649 177.311 178.825 167.964 178.825C163.733 178.825 159.112 177.723 157.191 173.217H156.795L155.288 177.672H138.46L143.456 154.152L163.85 150.85V150.85ZM164.857 141.988C166.32 140.8 169.927 138.037 175.447 138.037C181.052 138.037 185.36 140.475 187.508 145.073L144.431 149.557L150.222 122.314H168.774L164.596 141.988H164.857ZM55.5656 168.395L57.1941 160.571H36.1371C34.6777 173.818 45.0787 179.127 58.4208 179.127C71.2245 179.127 84.7644 174.854 87.7789 163.172L55.5654 168.395H55.5656ZM54.8676 155.167C47.4013 152.806 41.7675 148.408 41.7675 140.079C41.7675 127.89 53.9341 120.911 70.2142 120.873C84.0057 120.822 93.1351 126.57 91.526 138.036H71.8998C72.5914 134.903 70.7908 133.125 67.4322 133.125C64.8225 133.125 62.8022 134.476 62.4802 136.06C62.0247 138.329 63.4778 139.76 66.9957 140.712C69.9623 141.522 71.989 142.061 74.9048 142.892C83.2058 145.269 87.1762 150.225 88.2023 155.412L63.5382 157.955L54.8676 155.167ZM223.651 138.716C219.553 138.716 216.271 141.077 214.056 144.117H213.719L214.292 139.181H197.088L196.04 144.191L205.536 143.2L205.325 144.146L195.689 145.711L188.905 177.672H207.457C207.457 177.672 209.372 168.488 210.538 163.109C212.409 154.528 217.116 152.587 220.251 152.587C222.899 152.587 224.553 153.782 224.964 154.117L228.001 139.809C227.708 139.643 226.124 138.716 223.651 138.716V138.716ZM254.675 153.675L254.866 152.78C255.43 149.803 254.003 147.551 250.883 147.551C248.009 147.551 245.558 149.612 244.695 153.675H254.675V153.675ZM268.457 165.322C265.586 173.473 257.69 178.824 244.736 178.824C233.953 178.824 223.558 172.553 226.123 158.187C228.271 146.094 239.38 138.039 252.084 138.039C266.313 138.039 272.526 147.809 270.219 159.197L269.665 161.807H242.939C242.853 162.107 242.515 163.35 242.515 164.714C242.515 168.13 244.328 169.324 246.635 169.324C249.019 169.324 251.068 167.992 252.196 165.322H268.457ZM271.485 174.364H271.979C272.546 174.364 273.028 174.157 273.028 173.628C273.028 173.252 272.747 172.873 271.979 172.873C271.756 172.873 271.603 172.891 271.485 172.911L271.485 174.364ZM271.485 176.741H270.8V172.449C271.16 172.395 271.498 172.347 272.014 172.347C272.664 172.347 273.091 172.481 273.353 172.672C273.604 172.857 273.741 173.15 273.741 173.558C273.741 174.122 273.365 174.466 272.903 174.603V174.638C273.279 174.705 273.537 175.046 273.623 175.68C273.725 176.349 273.831 176.604 273.897 176.741H273.177C273.072 176.605 272.97 176.209 272.887 175.645C272.785 175.097 272.508 174.893 271.963 174.893H271.485V176.741V176.741ZM272.202 171.251C270.507 171.251 269.124 172.704 269.124 174.498C269.124 176.33 270.507 177.771 272.218 177.771C273.929 177.786 275.296 176.33 275.296 174.517C275.296 172.704 273.929 171.251 272.218 171.251H272.203H272.202ZM272.217 170.652C274.324 170.652 276 172.363 276 174.498C276 176.671 274.324 178.37 272.201 178.37C270.098 178.37 268.387 176.671 268.387 174.498C268.387 172.363 270.098 170.652 272.202 170.652H272.217H272.217Z" fill="#E50000"/>
</g>
<defs>
<clipPath id="clip0">
<rect width="300" height="300" fill="white"/>
</clipPath>
</defs>
</svg>
