<svg width="300" height="300" viewBox="0 0 300 300" fill="none" xmlns="http://www.w3.org/2000/svg">
<rect width="300" height="300" fill="white"/>
<path d="M237 119.723C237 119.139 237 118.847 237 118.263C237 117.971 237 117.679 236.709 117.679C236.709 117.387 236.709 117.095 236.418 117.095C236.418 116.803 236.126 116.511 236.126 116.219C236.126 115.927 235.835 115.927 235.835 115.635C235.544 115.344 235.253 114.76 234.961 114.468L183.702 61.0435C183.411 60.7516 183.12 60.4597 182.537 60.1677C182.537 60.1677 182.246 60.1677 182.246 59.8758C181.955 59.5839 181.663 59.5839 181.372 59.2919H181.081C180.79 59.2919 180.498 59 180.207 59C179.625 59 179.333 59 178.751 59H70.9899C67.2037 59 64 62.2113 64 66.2984V155.339C64 159.426 67.2037 162.637 70.9899 162.637H89.3384V211.682C89.3384 227.155 101.279 240 116.133 240H229.428C231.175 240 233.214 239.124 234.379 237.956C235.835 236.497 236.418 234.745 236.418 232.702L237 119.723ZM185.741 84.3984L212.535 112.424H185.741V84.3984ZM140.015 225.111C142.054 221.024 143.219 216.645 143.219 211.682V202.924C143.219 198.837 140.015 195.626 136.229 195.626C132.443 195.626 129.239 198.837 129.239 202.924V211.682C129.239 218.981 123.414 225.111 116.424 225.111C109.434 225.111 103.609 218.981 103.609 211.682V162.929H130.404C134.19 162.929 137.394 159.718 137.394 155.631C137.394 151.544 134.19 148.332 130.404 148.332H103.609V120.015C103.609 115.927 100.406 112.716 96.6195 112.716C92.8333 112.716 89.6296 115.927 89.6296 120.015V148.332H78.271V73.8887H171.761V120.015C171.761 124.102 174.965 127.313 178.751 127.313H222.729V225.111H140.015Z" fill="#007AFF"/>
</svg>
